<?xml version="1.0" encoding="UTF-8" standalone="no"?>
<svg
   xmlns:dc="http://purl.org/dc/elements/1.1/"
   xmlns:cc="http://creativecommons.org/ns#"
   xmlns:rdf="http://www.w3.org/1999/02/22-rdf-syntax-ns#"
   xmlns:svg="http://www.w3.org/2000/svg"
   xmlns="http://www.w3.org/2000/svg"
   xmlns:xlink="http://www.w3.org/1999/xlink"
   xmlns:sodipodi="http://sodipodi.sourceforge.net/DTD/sodipodi-0.dtd"
   xmlns:inkscape="http://www.inkscape.org/namespaces/inkscape"
   viewBox="0 0 260.89999 74"
   version="1.1"
   id="svg100"
   sodipodi:docname="logo.svg"
   width="260.89999"
   height="74"
   inkscape:version="1.0.1 (3bc2e813f5, 2020-09-07)">
  <metadata
     id="metadata104">
    <rdf:RDF>
      <cc:Work
         rdf:about="">
        <dc:format>image/svg+xml</dc:format>
        <dc:type
           rdf:resource="http://purl.org/dc/dcmitype/StillImage" />
        <dc:title></dc:title>
      </cc:Work>
    </rdf:RDF>
  </metadata>
  <sodipodi:namedview
     pagecolor="#ffffff"
     bordercolor="#666666"
     borderopacity="1"
     objecttolerance="10"
     gridtolerance="10"
     guidetolerance="10"
     inkscape:pageopacity="0"
     inkscape:pageshadow="2"
     inkscape:window-width="1920"
     inkscape:window-height="1016"
     id="namedview102"
     showgrid="false"
     inkscape:zoom="3.6055059"
     inkscape:cx="119.8185"
     inkscape:cy="74.169251"
     inkscape:window-x="0"
     inkscape:window-y="27"
     inkscape:window-maximized="1"
     inkscape:current-layer="svg100" />
  <defs
     id="defs58">
    <style
       id="style2">.cls-1{fill:none;}.cls-2{clip-path:url(#clip-path);}.cls-3{fill:url(#Degradado_sin_nombre_4);}.cls-4{clip-path:url(#clip-path-2);}.cls-5{fill:url(#Degradado_sin_nombre_5);}.cls-6{clip-path:url(#clip-path-3);}.cls-7{fill:url(#Degradado_sin_nombre_6);}.cls-8{clip-path:url(#clip-path-4);}.cls-9{fill:url(#Degradado_sin_nombre_7);}.cls-10{clip-path:url(#clip-path-5);}.cls-11{fill:url(#Degradado_sin_nombre_8);}.cls-12{clip-path:url(#clip-path-6);}.cls-13{fill:url(#Degradado_sin_nombre_9);}.cls-14{clip-path:url(#clip-path-7);}.cls-15{fill:url(#Degradado_sin_nombre_3);}.cls-16{clip-path:url(#clip-path-8);}.cls-17{fill:url(#Degradado_sin_nombre_2);}.cls-18{clip-path:url(#clip-path-9);}.cls-19{fill:url(#Degradado_sin_nombre);}</style>
    <clipPath
       id="clip-path">
      <path
         class="cls-1"
         d="m 320.92,213.16 v 106 q 0,16.43 6.82,24.54 6.82,8.11 23,9.52 c 1.46,0.13 3.2,0.19 5.2,0.19 h 13.36 l 0.2,-30.25 h -10.91 q -7.62,0 -7.61,-6.41 V 213.16 Z"
         id="path4" />
    </clipPath>
    <linearGradient
       id="Degradado_sin_nombre_4"
       y1="595.28003"
       x2="1"
       y2="595.28003"
       gradientTransform="matrix(0,-637.2,-637.2,0,379658.39,712.29)"
       gradientUnits="userSpaceOnUse">
      <stop
         offset="0"
         stop-color="#37a0b0"
         id="stop7" />
      <stop
         offset="0.04"
         stop-color="#2c91a9"
         id="stop9" />
      <stop
         offset="0.11"
         stop-color="#1e7ea1"
         id="stop11" />
      <stop
         offset="0.19"
         stop-color="#16739c"
         id="stop13" />
      <stop
         offset="0.27"
         stop-color="#136f9a"
         id="stop15" />
      <stop
         offset="0.52"
         stop-color="#503f89"
         id="stop17" />
      <stop
         offset="0.78"
         stop-color="#864187"
         id="stop19" />
      <stop
         offset="1"
         stop-color="#be3474"
         id="stop21" />
      <stop
         offset="1"
         stop-color="#be3474"
         id="stop23" />
    </linearGradient>
    <clipPath
       id="clip-path-2">
      <path
         class="cls-1"
         d="m 447.86,248.22 v 71.93 q -1,5.4 -6.57,6.41 a 5.29,5.29 0 0 1 -1.6,0.2 H 421 q -7.17,0 -7.17,-8.42 v -70.12 h -26.67 v 78.34 q 0,9.69 3.63,14.94 4.63,6.86 9.69,9.38 c 3.36,1.69 7.8,2.52 13.32,2.52 h 34.06 v 6.22 q -0.8,5 -6,6.2 a 4,4 0 0 1 -1.6,0.21 h -53.1 v 26.84 h 62.3 q 21.65,0 24.65,-23.27 a 27.57,27.57 0 0 0 0.4,-5.42 v -116 z"
         id="path26" />
    </clipPath>
    <linearGradient
       id="Degradado_sin_nombre_5"
       x1="0"
       y1="595.28003"
       x2="1"
       y2="595.28003"
       gradientTransform="matrix(0,-637.2,-637.2,0,379742.9,656.51)"
       xlink:href="#Degradado_sin_nombre_4" />
    <clipPath
       id="clip-path-3">
      <polygon
         class="cls-1"
         points="537.41,275.07 537.41,248.22 519.58,248.22 519.58,208.96 492.94,208.96 492.94,353.4 519.58,353.4 519.58,275.07 "
         id="polygon30" />
    </clipPath>
    <linearGradient
       id="Degradado_sin_nombre_6"
       x1="0"
       y1="595.27002"
       x2="1"
       y2="595.27002"
       gradientTransform="matrix(0,-637.2,-637.2,0,379824.47,549.15)"
       xlink:href="#Degradado_sin_nombre_4" />
    <clipPath
       id="clip-path-4">
      <path
         class="cls-1"
         d="m 547.43,353.4 h 26.65 V 248.22 h -26.65 z m 1.1,-144.24 a 15.52,15.52 0 0 0 -4.53,12.22 17,17 0 0 0 5,11.42 15.51,15.51 0 0 0 11.42,4.6 16.42,16.42 0 0 0 11.92,-4.8 16.68,16.68 0 0 0 -11.72,-28.45 16.29,16.29 0 0 0 -12.12,5"
         id="path34" />
    </clipPath>
    <linearGradient
       id="Degradado_sin_nombre_7"
       x1="0"
       y1="595.27002"
       x2="1"
       y2="595.27002"
       gradientTransform="matrix(0,-637.2,-637.2,0,379871,504.39)"
       xlink:href="#Degradado_sin_nombre_4" />
    <clipPath
       id="clip-path-5">
      <path
         class="cls-1"
         d="m 614.74,248.22 q -22.23,0 -22.23,24.85 v 53.09 q 0,27.24 27.84,27.24 h 42.88 v -26.84 h -36.67 a 6.37,6.37 0 0 1 -6,-3.18 6.1,6.1 0 0 1 -1.4,-4.18 v -39.76 q 1,-4.37 8,-4.37 h 36.07 v -26.85 z"
         id="path38" />
    </clipPath>
    <linearGradient
       id="Degradado_sin_nombre_8"
       x1="0"
       y1="595.28003"
       x2="1"
       y2="595.28003"
       gradientTransform="matrix(0,-637.2,-637.2,0,379943.17,455.68)"
       xlink:href="#Degradado_sin_nombre_4" />
    <clipPath
       id="clip-path-6">
      <path
         class="cls-1"
         d="m 710.71,327.36 a 6.69,6.69 0 0 1 -4.11,-2.36 5.78,5.78 0 0 1 -1.3,-3.54 v -8.3 c 0.4,-3.1 1.73,-4.86 4,-5.26 h 23.44 c 1.87,0 3.08,0.27 3.61,0.8 a 5.55,5.55 0 0 1 3.41,5.41 v 7.41 c 0,4 -2.28,6 -6.81,6 h -20.84 a 4.5,4.5 0 0 1 -1.4,-0.2 m -32.06,-79.14 v 25.25 h 55.46 c 3.63,0.53 5.51,1.94 5.65,4.2 v 5.61 h -35.55 q -11.78,0 -18.67,6.51 -6.89,6.51 -6.89,18.34 v 21.43 a 17.87,17.87 0 0 1 0.4,4.81 q 3.41,19 26.65,19 h 36.66 a 23.13,23.13 0 0 0 15.43,-5.33 25,25 0 0 0 8.61,-19.23 v -55.9 a 28.78,28.78 0 0 0 -0.39,-4.61 q -3,-17.43 -21.68,-19.64 c -2.25,-0.26 -3.78,-0.4 -4.57,-0.4 z"
         id="path42" />
    </clipPath>
    <linearGradient
       id="Degradado_sin_nombre_9"
       x1="0"
       y1="595.28003"
       x2="1"
       y2="595.28003"
       gradientTransform="matrix(0,-637.2,-637.2,0,380034.45,365.58)"
       xlink:href="#Degradado_sin_nombre_4" />
    <clipPath
       id="clip-path-7">
      <path
         class="cls-1"
         d="m 191.77,213.16 -0.14,20.6 h 7.43 c 3.46,0 5.18,1.45 5.18,4.36 v 70.52 h 20.47 v -72.15 q 0,-11.19 -4.64,-16.71 -4.64,-5.52 -15.69,-6.48 c -1,-0.09 -2.18,-0.14 -3.54,-0.14 z"
         id="path46" />
    </clipPath>
    <linearGradient
       id="Degradado_sin_nombre_3"
       x1="0"
       y1="595.27002"
       x2="1"
       y2="595.27002"
       gradientTransform="matrix(0,-637.2,-637.2,0,379519.48,827.19)"
       xlink:href="#Degradado_sin_nombre_4" />
    <clipPath
       id="clip-path-8">
      <path
         class="cls-1"
         d="m 75.49,265.73 v 72.16 q 0,11.17 4.63,16.7 4.63,5.53 15.69,6.48 c 1,0.09 2.18,0.14 3.55,0.14 h 9.06 l 0.14,-20.6 h -7.43 c -3.46,0 -5.18,-1.45 -5.18,-4.36 v -70.52 z"
         id="path50" />
    </clipPath>
    <linearGradient
       id="Degradado_sin_nombre_2"
       x1="0"
       y1="595.28003"
       x2="1"
       y2="595.28003"
       gradientTransform="matrix(0,-637.2,-637.2,0,379404.85,973.69)"
       xlink:href="#Degradado_sin_nombre_4" />
    <clipPath
       id="clip-path-9">
      <polygon
         class="cls-1"
         points="139.96,298.5 152.01,273.45 158.65,273.45 170.69,298.5 163.32,298.5 155.33,280.92 147.25,298.5 "
         id="polygon54" />
    </clipPath>
    <linearGradient
       id="Degradado_sin_nombre"
       x1="0"
       y1="595.27002"
       x2="1"
       y2="595.27002"
       gradientTransform="matrix(0,-637.2,-637.2,0,379465.52,894.8)"
       xlink:href="#Degradado_sin_nombre_4" />
    <linearGradient
       inkscape:collect="always"
       xlink:href="#Degradado_sin_nombre_4"
       id="linearGradient1155"
       gradientUnits="userSpaceOnUse"
       gradientTransform="matrix(0,-637.2,-637.2,0,379658.39,712.29)"
       y1="595.28003"
       x2="1"
       y2="595.28003" />
  </defs>
  <g
     id="Capa_1"
     data-name="Capa 1"
     transform="matrix(0.3525,0,0,0.3525,-18.435761,-68.289705)">
    <g
       class="cls-2"
       clip-path="url(#clip-path)"
       id="g62">
      <rect
         class="cls-3"
         x="271.01999"
         y="238.42999"
         width="148.39"
         height="89.709999"
         transform="rotate(-71.92,345.18928,283.27879)"
         id="rect60"
         style="fill:url(#linearGradient1155)" />
    </g>
    <g
       class="cls-4"
       clip-path="url(#clip-path-2)"
       id="g66">
      <rect
         class="cls-5"
         x="348.51999"
         y="256.57999"
         width="164.62"
         height="127.93"
         transform="rotate(-71.92,430.80596,320.54483)"
         id="rect64"
         style="fill:url(#Degradado_sin_nombre_5)" />
    </g>
    <g
       class="cls-6"
       clip-path="url(#clip-path-3)"
       id="g70">
      <rect
         class="cls-7"
         x="439.60999"
         y="237.62"
         width="151.12"
         height="87.120003"
         transform="rotate(-71.92,515.14435,281.18588)"
         id="rect68"
         style="fill:url(#Degradado_sin_nombre_6)" />
    </g>
    <g
       class="cls-8"
       clip-path="url(#clip-path-4)"
       id="g74">
      <rect
         class="cls-9"
         x="484.37"
         y="239.67999"
         width="152.28999"
         height="78.199997"
         transform="rotate(-71.92,560.49179,278.78125)"
         id="rect72"
         style="fill:url(#Degradado_sin_nombre_7)" />
    </g>
    <g
       class="cls-10"
       clip-path="url(#clip-path-5)"
       id="g78">
      <rect
         class="cls-11"
         x="566.90002"
         y="250.88"
         width="121.94"
         height="99.879997"
         transform="rotate(-71.92,627.8285,300.81848)"
         id="rect76"
         style="fill:url(#Degradado_sin_nombre_8)" />
    </g>
    <g
       class="cls-12"
       clip-path="url(#clip-path-6)"
       id="g82">
      <rect
         class="cls-13"
         x="658.90997"
         y="242.78"
         width="127.22"
         height="116.07"
         transform="matrix(0.31,-0.95,0.95,0.31,212.3,894.28)"
         id="rect80"
         style="fill:url(#Degradado_sin_nombre_9)" />
    </g>
  </g>
  <g
     id="Capa_2"
     data-name="Capa 2"
     transform="matrix(0.3525,0,0,0.3525,-18.435761,-68.289705)">
    <g
       class="cls-14"
       clip-path="url(#clip-path-7)"
       id="g87">
      <rect
         class="cls-15"
         x="157.64999"
         y="230.37"
         width="101.03"
         height="61.080002"
         transform="rotate(-71.92,208.15751,260.89907)"
         id="rect85"
         style="fill:url(#Degradado_sin_nombre_3)" />
    </g>
  </g>
  <g
     id="Capa_3"
     data-name="Capa 3"
     transform="matrix(0.3525,0,0,0.3525,-18.435761,-68.289705)">
    <g
       class="cls-16"
       clip-path="url(#clip-path-8)"
       id="g92">
      <rect
         class="cls-17"
         x="41.509998"
         y="282.92999"
         width="101.03"
         height="61.07"
         transform="rotate(-71.92,92.011272,313.46361)"
         id="rect90"
         style="fill:url(#Degradado_sin_nombre_2)" />
    </g>
  </g>
  <g
     id="Capa_4"
     data-name="Capa 4"
     transform="matrix(0.3525,0,0,0.3525,-18.435761,-68.289705)">
    <g
       class="cls-18"
       clip-path="url(#clip-path-9)"
       id="g97">
      <rect
         class="cls-19"
         x="138.64999"
         y="267.48001"
         width="33.34"
         height="36.98"
         transform="rotate(-71.92,155.3083,285.96918)"
         id="rect95"
         style="fill:url(#Degradado_sin_nombre)" />
    </g>
  </g>
</svg>
